<?xml version="1.0" encoding="utf-8"?>
<!-- Generator: Adobe Illustrator 13.0.0, SVG Export Plug-In . SVG Version: 6.00 Build 14948)  -->
<!DOCTYPE svg PUBLIC "-//W3C//DTD SVG 1.1//EN" "http://www.w3.org/Graphics/SVG/1.1/DTD/svg11.dtd">
<svg version="1.1" id="Layer_1" xmlns="http://www.w3.org/2000/svg" xmlns:xlink="http://www.w3.org/1999/xlink" x="0px" y="0px"
	 width="512px" height="512px" viewBox="0 0 512 512" enable-background="new 0 0 512 512" xml:space="preserve">
<path id="x-mark-4-icon" d="M462,256c0,113.771-92.229,206-206,206c-113.771,0-206-92.229-206-206c0-113.771,92.229-206,206-206
	C369.771,50,462,142.229,462,256z M422,256c0-91.755-74.26-166-166-166C164.245,90,90,164.26,90,256c0,91.755,74.258,166,166,166
	C347.755,422,422,347.741,422,256z M325.327,362.49l-67.325-67.324l-67.329,67.332l-36.164-36.186l67.313-67.322l-67.319-67.317
	l36.185-36.164l67.312,67.303l67.3-67.311l36.191,36.17l-67.312,67.315l67.318,67.31L325.327,362.49z"/>
</svg>
