<?xml version="1.0" encoding="utf-8"?>
<!-- Generator: Adobe Illustrator 13.0.0, SVG Export Plug-In . SVG Version: 6.00 Build 14948)  -->
<!DOCTYPE svg PUBLIC "-//W3C//DTD SVG 1.1//EN" "http://www.w3.org/Graphics/SVG/1.1/DTD/svg11.dtd">
<svg version="1.1" id="Layer_1" xmlns="http://www.w3.org/2000/svg" xmlns:xlink="http://www.w3.org/1999/xlink" x="0px" y="0px"
	 width="512px" height="512px" viewBox="0 0 512 512" enable-background="new 0 0 512 512" xml:space="preserve">
<path id="github-icon" fill="#FFFFFF" d="M256,55.083c-113.765,0-206,92.237-206,206c0,91.014,59.024,168.246,140.887,195.473
	c10.293,1.911,13.613-4.459,13.613-9.908v-38.356C147.199,420.764,135.262,384,135.262,384
	c-9.354-23.821-22.865-30.159-22.865-30.159c-18.692-12.773,1.408-12.522,1.408-12.522c20.688,1.459,31.584,21.24,31.584,21.24
	c18.373,31.482,48.18,22.381,59.949,17.116c1.844-13.312,7.174-22.396,13.076-27.544c-45.769-5.196-93.849-22.866-93.849-101.81
	c0-22.498,8.047-40.872,21.226-55.289c-2.146-5.197-9.188-26.152,1.979-54.518c0,0,17.301-5.532,56.662,21.123
	c16.445-4.561,34.066-6.856,51.568-6.94c17.502,0.084,35.153,2.381,51.6,6.94c39.33-26.655,56.596-21.123,56.596-21.123
	c11.217,28.364,4.158,49.319,2.029,54.518c13.211,14.417,21.207,32.791,21.207,55.289c0,79.127-48.197,96.545-94.063,101.642
	c7.374,6.389,14.133,18.943,14.133,38.155c0,27.562,0,49.757,0,56.529c0,5.482,3.301,11.903,13.745,9.892
	C403.057,429.264,462,352.08,462,261.084C462,147.321,369.762,55.083,256,55.083z"/>
</svg>
