<?xml version="1.0" encoding="utf-8"?>
<!-- Generator: Adobe Illustrator 13.0.0, SVG Export Plug-In . SVG Version: 6.00 Build 14948)  -->
<!DOCTYPE svg PUBLIC "-//W3C//DTD SVG 1.1//EN" "http://www.w3.org/Graphics/SVG/1.1/DTD/svg11.dtd">
<svg version="1.1" id="Layer_1" xmlns="http://www.w3.org/2000/svg" xmlns:xlink="http://www.w3.org/1999/xlink" x="0px" y="0px"
	 width="512px" height="512px" viewBox="0 0 512 512" enable-background="new 0 0 512 512" xml:space="preserve">
<path id="linkedin-square-rounded-icon" fill="#FFFFFF" d="M411.945,50h-312c-27.613,0-50,22.387-50,50v312
	c0,27.614,22.387,50,50,50h312c27.614,0,50-22.386,50-50V100C461.945,72.386,439.56,50,411.945,50z M180.996,392.99h-56.537V210.336
	h56.537V392.99z M152.457,186.417c-18.465,0-33.433-15.09-33.433-33.703s14.968-33.703,33.433-33.703
	c18.463,0,33.432,15.09,33.432,33.703S170.92,186.417,152.457,186.417z M392.865,392.99h-56.262c0,0,0-69.582,0-95.881
	c0-26.296-9.988-40.974-30.781-40.974c-22.629,0-34.452,15.288-34.452,40.974c0,28.133,0,95.881,0,95.881h-54.224V210.336h54.224
	v24.6c0,0,16.309-30.171,55.04-30.171c38.732,0,66.455,23.647,66.455,72.571C392.865,326.262,392.865,392.99,392.865,392.99z"/>
</svg>
